<svg width="28" height="28" viewBox="0 0 28 28" fill="none" xmlns="http://www.w3.org/2000/svg">
<g clip-path="url(#clip0_1055_6294)">
<path d="M6.28906 12.9375C6.28906 9.42969 9.14062 6.57812 12.6484 6.57812C16.1562 6.57812 19.0078 9.42969 19.0078 12.9375C19.0078 14.3047 18.5625 15.5703 17.8203 16.5938L21.3906 20.1719C21.6016 20.3906 21.7109 20.6797 21.7109 20.9922C21.7109 21.6406 21.2344 22.1406 20.5703 22.1406C20.2656 22.1406 19.9609 22.0391 19.7422 21.8125L16.1484 18.2188C15.1484 18.8984 13.9531 19.2969 12.6484 19.2969C9.14062 19.2969 6.28906 16.4453 6.28906 12.9375ZM7.94531 12.9375C7.94531 15.5312 10.0469 17.6406 12.6484 17.6406C15.2422 17.6406 17.3516 15.5312 17.3516 12.9375C17.3516 10.3438 15.2422 8.23438 12.6484 8.23438C10.0469 8.23438 7.94531 10.3438 7.94531 12.9375Z" fill="black"/>
</g>
<defs>
<clipPath id="clip0_1055_6294">
<rect width="28" height="28" fill="white"/>
</clipPath>
</defs>
</svg>
