<svg width="13" height="12" viewBox="0 0 13 12" fill="none" xmlns="http://www.w3.org/2000/svg">
<path d="M5.60326 0.816984C5.97008 0.0737386 7.02992 0.0737399 7.39674 0.816985L8.47153 2.99475C8.61719 3.28989 8.89875 3.49446 9.22446 3.54179L11.6278 3.89101C12.448 4.01019 12.7755 5.01816 12.182 5.5967L10.4429 7.29185C10.2072 7.52158 10.0997 7.85258 10.1553 8.17698L10.5659 10.5706C10.706 11.3875 9.84855 12.0104 9.11492 11.6247L6.96534 10.4946C6.67402 10.3415 6.32598 10.3415 6.03466 10.4946L3.88508 11.6247C3.15146 12.0104 2.29402 11.3875 2.43413 10.5706L2.84467 8.17698C2.9003 7.85258 2.79276 7.52158 2.55707 7.29185L0.818027 5.5967C0.22451 5.01816 0.552019 4.01019 1.37224 3.89101L3.77554 3.54179C4.10125 3.49446 4.38281 3.28989 4.52848 2.99474L5.60326 0.816984Z" fill="black" fill-opacity="0.4"/>
</svg>
